<?xml version="1.0" encoding="utf-8"?>
<!-- Generator: Adobe Illustrator 24.1.2, SVG Export Plug-In . SVG Version: 6.00 Build 0)  -->
<svg version="1.1" id="Layer_1" xmlns="http://www.w3.org/2000/svg" xmlns:xlink="http://www.w3.org/1999/xlink" x="0px" y="0px"
	 viewBox="0 0 1960.8 534.1" style="enable-background:new 0 0 1960.8 534.1;" xml:space="preserve">
<style type="text/css">
	.st0{fill:#FCF5A3;}
</style>
<path class="st0" d="M1960.8,200.9c-2.4,4-1.3,8.6-1.7,12.8c-0.7,9.7-2.3,19.3-2.3,29c0,8.1-0.1,8.1-8.2,8.1c-11,0-22,0.1-33-0.1
	c-3.7-0.1-4.7,1.2-4.9,4.9c-0.9,14.4-1.9,28.8-3.8,43.2c-0.1,0.8,0.1,1.7-0.1,2.5c-0.8,4.6,1.1,5.8,5.6,5.6
	c10.2-0.4,20.3,0,30.5-0.2c3.7-0.1,5.6,0.5,5,4.8c-1.5,9.4-1.7,18.9-2.7,28.4c-0.8,6.1-1.2,12.2-1.3,18.3c0,7.5-0.3,7.6-7.6,7.6
	c-10.5,0-21,0.1-31.5-0.1c-3.1-0.1-3.8,0.8-3.9,3.9c-0.8,14.6-2.1,29.2-3.8,43.7c-0.5,3.9,0,7.9-1,11.8c-1,4.1,0.3,6,5.3,5.9
	c13.2-0.4,26.3,0,39.5-0.2c4.1-0.1,4.9,1.3,3.7,4.9c-1.4,4.4-0.8,9.1-1.4,13.7c-1.6,13.4-2.4,26.9-3.1,40.3c-0.2,4-2.5,3.1-4.6,3.1
	c-28,0-56,0-84,0c-8.7,0-17.3,0-26,0c-1.9,0-3.4,0.8-2.8-2.9c1.4-9.4,1.5-19,2.3-28.5c1.2-13.2,2.9-26.4,3.8-39.6
	c0.6-8.5,1.4-17,2.1-25.6c1.2-14.6,2.3-29.1,4-43.7c1-9,1.3-18,2.1-27.1c1.2-13.6,2.6-27.1,3.9-40.7c0.4-4.4,0.4-8.9,0.9-13.3
	c1.5-13.6,2-27.2,3.2-40.8c1.1-12.7,2.9-25.4,3.8-38.2c0.3-4.1,2.3-3.5,4.7-3.5h107.4L1960.8,200.9z"/>
<path class="st0" d="M273,0c5,22,10,44,15,66c6.5,28.5,13.3,56.9,19.7,85.5c1.7,7.4,3.1,14.9,5.2,22.3c1,3.5-2.2,5.4-3.9,7.5
	c-6.7,8.2-13.8,16-20.8,24c-1.7,2-3.4,2.9-6.3,1.7c-6-2.4-12.5-3.8-18.4-6.5s-11.1-1.8-16.8,0c-6.9,2.3-14,4.2-20.9,6.5
	c-1.9,0.6-2.7,0.8-3.9-1c-6.1-9.1-12.4-18-18.8-26.9c-1.4-1.7-1.7-4.1-0.8-6.1c17.1-42.3,34.2-84.6,51.2-127
	c6.2-15.3,12.2-30.7,18.4-46L273,0z"/>
<path class="st0" d="M0,185.9c18,0,36-0.6,53.9,0.1c40.2,1.8,80.5,0.3,120.7,0.9c6.4,0.1,12,1,15,8.2c2.3,5.7,6.1,10.8,9.1,16.2
	c1.4,2.4,1.6,3.7-1.9,4.8c-10,3-9.5,3.3-10,14c-0.7,15.5-2,30.9-2.8,46.4c-0.1,2.3-1.6,2.7-3,3.2c-12.5,4.4-25.1,8.8-37.7,13.2
	c-1.7,0.6-2.9,0.8-4.7-0.6c-16.4-12.7-33-25.2-49.6-37.8c-18.7-14.2-37.5-28.5-56.3-42.7c-10.9-8.3-21.9-16.6-32.8-24.9L0,185.9z"/>
<path class="st0" d="M1524.9,188.9c9.8,0,19.7,0.2,29.5-0.1c4-0.1,4.9,1.2,4.5,4.8c-1.1,9-2.1,17.9-3,26.9
	c-0.4,4.3-0.4,8.5-0.9,12.8c-1.4,13.6-1.9,27.2-3.2,40.8c-1.5,15.2-2.7,30.5-4,45.7s-2.7,30.5-4,45.7c-1.3,15.4-2.8,30.8-4,46.1
	c-0.6,8-1.4,16.1-1.9,24.1c-0.2,2.6,0.8,4.9,1.3,7.2c0.6,2.3,2.7,4,5.2,3.9c3.2,0.3,6.3-1.4,7.8-4.2c2.7-4.7,3.2-10,3.7-15.1
	c1.6-16,3-32,4.3-48.1c1.2-15.1,2.6-30.1,4-45.2c1.4-15.4,2.7-30.8,4-46.2c1.3-15.2,2.7-30.4,4-45.7c1.3-15.1,2.9-30.1,3.9-45.2
	c0.1-1.9,0.9-3.9,0.9-5.8s0.8-2.5,2.7-2.5c21,0,42,0,63,0c3.2,0,2.5,2.1,2.4,3.7c-1.7,15.4-2.7,30.8-4.1,46.2
	c-1.3,15.1-2.7,30.1-3.9,45.1c-1.3,16.5-3.6,33-4.8,49.5c-0.6,9.4-1.6,18.7-2.3,28.1c-1,13.4-2.8,26.8-3.8,40.2
	c-0.8,11.3-2.3,22.5-4.1,33.6c-2.3,14.3-8.6,26.6-17.7,37.6c-10.8,13.1-24.7,21.5-41.4,24.3c-27.1,4.5-53,2-74.3-17.5
	c-9.9-9.1-14.7-21.3-16.7-34.6c-2.1-14.1-0.1-27.9,1-41.9c0.4-5.1,0.4-10.2,0.9-15.3c1.7-17.7,2.5-35.5,4.3-53.2
	c1.1-11.1,1.9-22.3,3-33.4c1.4-15.4,2.7-30.8,4-46.2s2.8-30.8,4.1-46.2c0.5-5.8,0.7-11.8,1.7-17.6c0.5-2.9,1.9-2.5,3.7-2.5
	C1504.6,188.9,1514.7,188.9,1524.9,188.9z"/>
<path class="st0" d="M1774.5,334.3c4.8,1.2,9.4,3.1,13.6,5.7c10.8,6.8,16,17,16.8,29.5c0.9,15.1-0.9,30.1-2.1,45s-2.8,30.1-3.9,45.2
	c-0.7,10.1-2,20.2-2.9,30.4c-0.2,2.2-0.8,2.8-2.9,2.8c-19-0.1-38-0.1-57,0c-2.3,0-3.4-0.5-3.2-3c0.9-9.8,1.6-19.6,2.7-29.4
	c0.5-4.6,0.5-9.2,1.1-13.8c1.6-13.5,1.7-27.3,3.3-40.8c1.4-12.8,2.1-25.7,1.9-38.6c-0.1-7-8.9-13.4-15.6-11.4
	c-1.7,0.5-1.3,1.6-1.4,2.7c-1,13.6-1.7,27.3-3.1,40.9c-1.5,15.2-2.7,30.4-4,45.6s-3,30.1-3.8,45.2c-0.1,2.4-1.2,2.6-3.1,2.6
	c-20.7,0-41.3,0-62,0c-2.5,0-3.2-0.8-3-3.2c0.5-10.8,1.6-21.6,2.8-32.4c0.5-4.4,0.5-8.8,1-13.3c1.5-13.6,1.9-27.3,3.3-40.9
	c1.5-15.2,2.7-30.4,4-45.6c1.3-15.1,2.7-30.1,4-45.2c1.3-15.5,2.7-31.1,4.1-46.7c0.9-10.9,2-21.9,2.9-32.9
	c1.2-13.9,2.7-27.8,3.9-41.7c0.2-2.2,1.2-2.3,2.9-2.3c22.3,0,44.7-0.5,67,0.3c11.9,0.4,24,0.8,35.9,2.8
	c18.5,3.1,29.5,13.1,35.1,32.6c4.2,14.6,3.8,29.8,2.4,45.1c-1.2,12.4-2.7,24.6-5.8,36.7C1804.3,325.6,1792.4,331.3,1774.5,334.3z
	 M1752.5,263.9c1.2-18.8-6.9-22.1-14.7-22.1c-2.5,0-2.9,1-3,3.2c-0.9,13.4-1.6,26.9-3.2,40.2c-0.6,4.6-0.5,9.1-1.2,13.7
	c-1.5,9.9-1.4,9.7,7.7,8.1c6.5-1.1,9.3-5.2,10.6-10.6C1751.4,284.2,1751.8,271.5,1752.5,263.9L1752.5,263.9z"/>
<path class="st0" d="M544.1,492.8c4.7-23.6,9.2-46.9,13.9-70.1c4.5-22.5,9.2-44.9,13.7-67.3c3.8-19.1,7.4-38.3,11.3-57.4
	c4.2-20.9,8.5-41.7,12.7-62.5c1.1-5.2,2.2-10.5,3.2-15.7c0.5-2.4-1.1-3.6-2.8-4.8c-14.3-10-30.4-16.2-47-20.9
	c-1.5-0.4-3.3-0.6-2.9-2.4c0.3-1.4,1.2-3.1,3.4-2.6c0.7,0.1,1.3,0.1,2,0c48.7,0,97.3,0.1,146-0.1c4.5,0,5.7,1.1,5.5,5.6
	c-0.8,14.4,0.8,28.8,1.1,43.3c0.5,17,1.3,34,1.9,51.1s1.4,34,2,51.1s1.3,34,2,51.1c0.7,17.2,1.3,34.4,2,51.6
	c0.6,15.4,1.5,30.7,1.9,46.1c0.1,3.5-0.9,4.4-4.4,4.4c-20.2-0.2-40.3-0.2-60.5,0c-3.7,0-4.2-1.2-4.3-4.5
	c-0.4-15.5,1.7-30.8,1.2-46.3c-0.1-3.5-1-4.5-4.5-4.3c-4.8,0.4-9.7,0.4-14.5,0c-4-0.4-4.7,2-5.1,4.8c-2.4,16-4.7,32-7,48
	c-0.2,1.6-0.6,2.3-2.3,2.3C589.8,492.8,567,492.8,544.1,492.8z M627.4,383.9c5.7,0,11.4-0.3,17,0.1c3.8,0.2,4.7-0.9,4.7-4.6
	c-0.2-27.4-0.1-54.9-0.1-82.3c-0.1-1.5-0.1-3,0.1-4.5c1.9-9,0.3-18,0.6-27C641.5,304.7,633.6,344,627.4,383.9z"/>
<path class="st0" d="M1420.6,321.9c-10,0-20,0-30,0c-2.8,0-3.6,0-3.1-3.8c1.2-7.8,1.8-15.7,2.2-23.5c0.9-15.8,3.5-31.5,3.2-47.4
	c-0.1-7.8-2.7-11.6-8.4-12.3c-5.3-0.7-9.5,2.9-11.8,9.6c-2.4,7-2.9,14.4-3.7,21.6c-1.5,14.4-2.3,28.8-4,43.2
	c-1.1,9.3-1.3,18.7-2.1,28.1c-1.2,13.2-3,26.4-3.8,39.7c-0.5,9.2-1.3,18.4-2.3,27.5c-0.8,7-0.4,14.1-1.7,21.2
	c-0.8,5.2-0.5,10.6,1.1,15.7c0.8,3,3.4,5.1,6.5,5.3c4.1,0.4,7.8-0.5,10.4-4.1c3.6-5.2,4-11.4,4.7-17.2c2-17.3,3.5-34.7,5-52
	c0.2-2.5,0.7-3.5,3.4-3.5c20.5,0.1,41,0.1,61.5,0c4.8,0,3.3,3.5,3.1,5.6c-1.1,11.2-2.6,22.5-3.9,33.7c-1.4,11.8-3.1,23.6-6.8,35
	c-9.4,28.9-29.9,46-58.9,52.5c-21.1,4.7-42,3.6-61.8-6.7c-16.4-8.5-25.6-21.9-28.7-40.2c-2.6-14.9-2.1-29.7-1.7-44.6
	c0.5-16.9,2.3-33.8,3.9-50.7c1.1-11,1.8-22,3-32.9c1.7-16,2.6-32,4.7-48c1.7-12.8,2.5-25.7,7.2-37.8c10.6-27.6,30.2-44.9,59.3-50.9
	c19.9-4.1,39.5-2.9,58.1,5.9c17.4,8.2,28.1,22.1,32.3,40.8c0.9,3.8,0.8,7.8,1.2,11.7c1.5,12,0.3,24.1-0.1,36.1
	c-0.4,13-2.6,25.9-3,38.9c-0.1,2.4-1.4,3.6-4.2,3.5C1441.2,321.8,1430.9,321.9,1420.6,321.9z"/>
<path class="st0" d="M1013.5,383.9c9,0,18,0.3,27-0.1c4.1-0.2,4.8,1.4,4.3,4.8c-2,14.8-2.9,29.8-4,44.7c-0.2,2.9,0.7,5.5,1.4,8.2
	c0.7,3,3.3,5.1,6.4,5.4c4.2,0.6,8.4-1,11-4.3c2.7-3.5,4.4-7.6,5-12c1.7-12,2.3-24,0.3-36c-0.5-3.2-2.1-6.2-4.4-8.5
	c-9.9-10.2-20.6-19.6-31.4-28.8c-10.3-8.7-21.3-17-28.8-28.5c-6.5-9.9-8.9-21-10.5-32.7c-1.3-9.6-0.6-19.2,0.3-28.6
	c1.9-19.1,3.7-38.5,15-55c10.3-15.1,25.4-23.6,42.9-27.2c18.6-3.8,37.3-3.5,55.4,2.9c13.3,4.7,24.7,12.1,31.3,25.3
	c1.7,3.7,2.8,7.6,3.3,11.6c2.2,15.9,0.7,31.7-0.1,47.6c-0.1,2.4-1.4,4.7-1,7.3c0.3,1.9-1,2.1-2.5,2.1c-19.3,0-38.7,0-58,0
	c-2.5,0-2.5-1.3-2.5-3.1c0.1-4.9,0.5-9.9,1.3-14.8c0.9-6.8,0.4-13.5,0.7-20.3c0.2-3.4-0.8-6.3-4.1-7.8c-3.8-1.7-7.2-1-10.3,1.8
	c-3.9,3.5-5.3,8.3-6.2,13.1c-1.7,9.3-2.7,18.6,0,27.9c2.6,8.7,9.6,14,16.4,19c14.6,10.8,28.7,22.3,41.1,35.6
	c11.3,12.1,17.3,26.5,18.3,43.2c0.5,7.8,1.2,15.6,0.7,23.3c-1.2,18.4-2.4,36.9-8.2,54.6c-6,18.5-19.8,29.6-36.8,37.3
	c-15.4,6.9-31.8,8.1-48.3,6.9c-17.4-1.3-33.2-7.4-45.5-20.4c-8.2-8.6-11.8-19.1-13.2-30.9c-1.1-10.2-1.3-20.5-0.7-30.8
	c0.3-10,1.2-20,2.6-29.9c0.5-3,1.8-2.9,3.8-2.9C994.9,383.9,1004.2,383.9,1013.5,383.9z"/>
<path class="st0" d="M1204.5,492.8c-18.2,0-36.3-0.1-54.5,0.1c-3.2,0-4.5-0.8-4.1-4.1c1.1-9.3,2.1-18.6,2.9-27.9
	c0.4-4.3,0.6-8.5,0.9-12.8c1.3-15.1,2.5-30.1,4.1-45.2c1-9.7,1.3-19.4,2.1-29.1c1.2-13.1,2.7-26.1,3.9-39.2
	c0.8-9.3,1.3-18.7,2.1-28.1c1.2-13.4,2.7-26.8,3.9-40.1c0.4-4.4,0.5-8.9,0.9-13.3c1.7-17.3,2.8-34.8,4.2-52.1
	c0.1-1.4,0.8-2.9,0.9-4.3c0.7-7.8,0.7-7.8,8.8-7.8c33.3,0,66.7,0.1,100-0.1c4.3,0,5,2,4,5c-1.6,5-1,10.1-1.6,15.1
	c-1.6,13-2.3,26.2-3.1,39.4c-0.2,3.3-2.3,2.6-4.2,2.6c-12.3,0-24.7,0.1-37,0c-2.9,0-3.7,0.5-4.1,3.7c-1.2,11.3-1.7,22.6-3.1,33.8
	c-0.7,5.2,0.2,10.5-1.6,15.6c-1.1,3.1,1.6,2.8,3.6,2.8c11.3,0,22.7,0,34,0c2.9,0,5-0.4,3.6,4.2c-1.3,3.9-0.7,8.5-1.1,12.7
	c-1.4,13.1-2.3,26.2-3.1,39.4c-0.2,2.8-1.5,2.8-3.5,2.8c-11.5,0-23,0-34.5,0c-2.5,0-3.9,0-4.3,3.5c-0.8,6.5-1.1,13.1-1.8,19.6
	c-1.3,13.1-2.2,26.2-3.8,39.2c-0.5,4,2,2.6,3.5,2.7c13.7,0.1,27.3,0.2,41,0c3.6-0.1,4.6,1,4.3,4.5c-1.1,9.9-2.2,19.9-2.9,29.9
	c-0.5,8-1.2,16.1-2,24.1c-0.3,3.2-1.3,3.7-4.1,3.7C1240.8,492.8,1222.6,492.8,1204.5,492.8z"/>
<path class="st0" d="M780.4,492.8c-16.7,0-33.3,0-50,0c-2.8,0-4.4,0.5-3.7-4c1.4-9.6,1.4-19.4,2.3-29c1.2-12.9,3.1-25.8,3.8-38.7
	c0.5-9.5,1.6-19,2.3-28.5c0.9-13.4,2.6-26.8,3.8-40.2c0.8-9,1.3-18.1,2.1-27.1c1.2-13.7,2.8-27.4,3.8-41.2c0.6-8.5,1.4-17,2.2-25.6
	c1.2-14.4,2.3-28.8,3.9-43.1c0.8-7.8,1-15.7,2-23.6c0.3-2.4,0.8-3,3.2-3c20.7,0.1,41.3,0.1,62,0c3.2,0,3.1,1.6,2.9,3.7
	c-1.6,16.5-3.4,33-4.9,49.5c-0.9,9.8-1.2,19.7-2.1,29.5c-1.2,12.9-2.9,25.8-3.8,38.7c-0.6,8.5-1.3,17-2.1,25.6
	c-1.3,14.4-2.2,28.8-3.9,43.2c-1.1,9.1-1.4,18.4-2.1,27.6c-0.5,6.5-1.3,13-2,19.6c-0.4,3.4,0.3,5,4.4,4.9c10.5-0.4,21,0,31.5-0.2
	c3.1,0,4.5,0.6,4.2,4c-1.4,13-2.9,26.1-3.9,39.2c-0.3,4.9-1.2,9.8-1.1,14.8c0.1,3.3-0.8,4.2-4.1,4.1
	C814.1,492.7,797.3,492.8,780.4,492.8z"/>
<path class="st0" d="M905.9,492.8c-16.7,0-33.3-0.1-50,0.1c-3.8,0-4.8-1.3-3.7-4.6c1.6-4.6,0.9-9.5,1.5-14.2
	c1.7-13.5,2-27.3,3.3-40.8c1.5-15.4,2.7-30.8,4-46.1c1.3-14.9,2.7-29.8,4-44.7c1.4-15.5,2.8-31.1,4-46.6c0.9-11.1,2-22.3,3-33.4
	c1.4-15.5,2.9-31.1,4-46.7c0.5-7.4,1.9-14.7,1.9-22.1c0-3.4,1.2-4.9,5-4.9c19.8,0.2,39.7,0.1,59.5,0c3.3,0,4.5-0.2,3.9,4.4
	c-1.1,8.3-1.6,16.7-2.3,25c-1.3,14.4-2.6,28.8-3.8,43.2c-0.8,9.5-1.7,19-2.3,28.5c-0.9,13.4-2.8,26.8-3.8,40.2
	c-0.6,8.4-1.3,16.7-2.1,25.1c-1.3,14.4-2.6,28.8-3.8,43.2c-0.8,9.5-2,19-2.3,28.5c-0.1,3,0.7,4,3.8,3.9c10.8-0.2,21.7,0,32.5-0.1
	c3.1,0,4.6,0.9,3.6,3.9c-1.6,4.9-1.1,10.1-1.7,15.1c-1.5,13.4-2.3,26.9-3.1,40.4c-0.2,3.4-2.2,2.6-4.1,2.6
	C939.9,492.8,922.9,492.8,905.9,492.8z"/>
<path class="st0" d="M512,187.1c-12.2,8.3-24.4,16.5-36.6,24.7c-39.4,26.5-78.8,53-118.2,79.4c-2.9,2-5.2,2.4-8.7,1
	c-11.2-4.7-22.6-8.9-34.1-13.1c-2.1-0.8-2-0.9-1.6-3.1c2.1-12.3,3.5-24.6,4.3-37.1c0.4-5.4,1.2-10.7,2.5-15.9c0.8-3-0.1-4.3-2.6-5
	c-10.6-3.1-10.6-3.1-3.9-11.6c4.1-5.3,7.9-10.9,12.2-16c3.6-4.4,9.3-3.1,13.9-3.2c20.1-0.4,40.3-0.2,60.5-0.2c16,0,32,0.7,48-0.2
	c19.8-1.1,39.5-0.5,59.3-0.8c1.6,0,3.2,0,4.8,0C511.7,186.3,511.9,186.7,512,187.1z"/>
<path class="st0" d="M386.8,485l-34.5-27.4c-11.7-9.3-23.4-18.5-35.1-27.8c-13.6-10.8-27.3-21.5-40.9-32.3
	c-8.5-6.7-16.8-13.7-25.4-20.2c-1.5-0.9-2.2-2.8-1.8-4.5c1.2-8.1,2.5-16.2,3-24.3c0.2-2.5,2.2-3.8,3.9-4.9
	c10.7-7,20.8-14.9,30.2-23.6c6.2-5.5,11.4-11.9,15.7-19c1.3-2.2,2.7-2.6,4.8-2c12.1,3.6,24.3,7.2,36.4,10.6c1.8,0.5,1.7,1.4,2,2.8
	c4.9,20,10,40,14.9,60c8.8,35.6,17.5,71.3,26.4,106.8C386.8,481.3,387,483.2,386.8,485z"/>
<path class="st0" d="M85.2,455.4c6.1-14.5,12.2-28.9,18.2-43.3c5.1-12.1,10.2-24.2,15.3-36.3c1.3-2.7,2.1-5.6,2.2-8.6
	c0-2.1-0.4-4.3,2.8-4.9c0.9-0.1,1.6-2.4,2.1-3.7c6-14.1,12-28.1,17.8-42.3c0.8-2.5,2.9-4.4,5.5-4.9c11.9-3.1,23.8-6.4,35.6-9.7
	c1.5-0.4,3-1.5,4.1,0.9c6.9,15.7,18.8,27.5,32.1,37.6c7.4,5.6,11.3,11.2,9.1,20.6c-1,4.5-0.6,9.3-0.7,14c-0.1,2.3-1,3.1-3.4,3.1
	c-4,0-8.9-1.7-11.6,0.7s-1.4,7.5-1.7,11.5c-0.2,2.7-1.2,4-4,3.6c-1.3-0.1-2.7-0.1-4,0c-8.3,0-8.4,0-8.8,8.6
	c-0.4,8.3-0.4,6.7-6.9,6.8c-7.2,0.1-14.3,0.1-21.5,0c-2.5,0-3.8,0.8-3.6,3.4c0,0.2,0,0.3,0,0.5c-1.1,12.4-1.1,12.3-13.2,11.9
	c-2.5-0.1-3.9-0.5-3.1-3.4c0.1-0.3,0.1-0.7,0.1-1c0.9-11.1,0.9-10.9-10.1-11.1c-3.7,0-4.7,1-5,4.7c-0.7,10.6-0.9,10.8-11.8,10.6
	c-3.9-0.1-5,1-5.2,4.9c-0.5,10.7-0.7,10.9-11.7,10.7c-3.9-0.1-5,1.1-5.2,5c-0.5,11-0.7,11-11.8,10.5
	C86.4,455.8,85.8,455.6,85.2,455.4z M173.2,393.9c8.3,0,8.3,0,8.8-8.5c0-1.3,0.1-2.7,0.3-4c0.5-2.6-0.7-3.3-3-3.1
	c-1.5,0.1-3,0-4.5,0c-7.9,0-7.9,0-8.5,7.9S165.5,393.9,173.2,393.9L173.2,393.9z"/>
<path class="st0" d="M146,456.1c-0.7-0.1-1.3-0.1-2,0c-4.8,0.8-6.4-0.7-5.4-5.9c1.3-6.2,0.8-6.3-5.8-6.3c-9.4,0-9.1,0-8.6-9.2
	c0.3-5.4,2.1-6.9,7.5-6.6c8.5,0.5,8.7,0.1,8.1,8.5c-0.3,3.5,0.9,4.2,4.1,4.2c3.6,0,8.2-1.7,10.5,0.8c2.1,2.3-0.2,6.6-0.4,10.1
	C153.8,456.9,154.3,456,146,456.1z"/>
<path class="st0" d="M84.4,466.8c7.4,0,7.4,0,6.8,7.2c-0.7,8.5-0.7,8.5-9.3,8.5c-7.3,0-7.3,0-6.4-7.3c0-0.2,0-0.3,0.1-0.5
	C76.5,466.8,76.5,466.8,84.4,466.8z"/>
<path class="st0" d="M97.1,494.9c7.9,0,7.9,0,7.1,7.8c-0.8,8-0.8,8-9.1,8c-1.3,0-2.7-0.1-4,0c-2.4,0.2-3.4-0.7-3-3.1
	c0.3-1.6,0.4-3.3,0.6-4.9C89.6,494.9,89.6,494.9,97.1,494.9z"/>
<path class="st0" d="M115.3,468.9c-8,0-8,0-7.4-7.3c0.1-1.2,0.2-2.3,0.2-3.5c-0.2-3.5,1-4.9,4.8-4.8c11.3,0.1,10.8-0.1,10.4,11
	C123,471.7,118,468,115.3,468.9z"/>
<path class="st0" d="M54.9,534.1c-7.3,0-7.3,0-6.8-7.2c0.6-8.2,0.6-8.2,8.6-8.2c1.5,0,3,0.1,4.5,0c2.3-0.2,3.4,0.6,3,3.1
	c-0.2,1.3-0.2,2.7-0.2,4C63.4,534.1,63.4,534.1,54.9,534.1z"/>
</svg>
