<?xml version="1.0" encoding="utf-8"?>
<!-- Generator: Adobe Illustrator 24.1.2, SVG Export Plug-In . SVG Version: 6.00 Build 0)  -->
<svg version="1.1" id="Layer_1" xmlns="http://www.w3.org/2000/svg" xmlns:xlink="http://www.w3.org/1999/xlink" x="0px" y="0px"
	 viewBox="0 0 182 36" style="enable-background:new 0 0 182 36;" xml:space="preserve">
<style type="text/css">
	.st0{fill:#FCF5A3;}
</style>
<desc>Created with Sketch.</desc>
<g id="Page-1">
	<g id="hipotekarna-banka" transform="translate(-14.000000, -85.000000)">
		<path id="logo" class="st0" d="M191.1,88.2l4.4,12.7h-4.9l-0.4-1.6h-3.4l-0.4,1.6h-4.8l4.5-12.7H191.1z M187.6,96.3h1.9
			c-0.1-0.2-0.1-0.4-0.2-0.6c-0.1-0.2-0.1-0.4-0.2-0.6c-0.1-0.5-0.2-1-0.3-1.5c-0.1-0.5-0.2-1-0.2-1.5l-0.1,0c0,0.5-0.1,1.1-0.2,1.6
			c-0.1,0.5-0.2,1-0.3,1.5c-0.1,0.2-0.1,0.4-0.2,0.6C187.7,95.9,187.6,96.1,187.6,96.3z M61,110.1c0.7,0.1,1.3,0.5,1.7,1
			c0.4,0.6,0.6,1.3,0.6,2.1c0,0.5-0.1,1-0.3,1.5c-0.2,0.5-0.4,0.9-0.8,1.2c-0.3,0.4-0.8,0.6-1.3,0.7c-0.5,0.1-1.4,0.2-2.5,0.2h-3.2
			v-12.7h3.1c0.9,0,1.6,0,2,0.1c0.4,0.1,0.8,0.3,1.1,0.5c0.4,0.3,0.7,0.7,0.9,1.1c0.2,0.5,0.3,1,0.3,1.6c0,0.7-0.2,1.2-0.5,1.7
			C62.1,109.6,61.6,109.9,61,110.1z M57.4,105.8v3.6h0.8c1,0,1.6-0.1,2-0.4c0.4-0.3,0.6-0.7,0.6-1.4c0-0.7-0.2-1.2-0.6-1.5
			c-0.4-0.3-1.1-0.4-2.1-0.4H57.4z M61.1,114c0.1-0.3,0.2-0.6,0.2-0.9c0-0.4-0.1-0.8-0.2-1.1c-0.2-0.3-0.4-0.5-0.7-0.7
			c-0.2-0.1-0.4-0.2-0.7-0.2c-0.2,0-0.6-0.1-1-0.1h-1.3v4.1h0.7c0.7,0,1.2,0,1.6-0.1c0.4-0.1,0.6-0.2,0.8-0.3
			C60.7,114.5,60.9,114.3,61.1,114z M69.5,104.1H70l5.8,12.7h-2.1l-1.4-3.3h-4.9l-1.4,3.3h-2.1L69.5,104.1z M70.3,108.9
			c-0.1-0.2-0.1-0.4-0.2-0.6c-0.1-0.2-0.2-0.5-0.2-0.8c-0.1,0.3-0.1,0.5-0.2,0.8c-0.1,0.2-0.2,0.5-0.2,0.7l-1.3,2.9h3.5L70.3,108.9z
			 M68,100.9h-4.5v-4.5h-3.6v4.5h-4.5V88.2h4.5v4.2h3.6v-4.2H68V100.9z M74.6,88.2v12.7H70V88.2H74.6z M138.2,88.2l-3.8,6.3l4.3,6.5
			h-5.5l-3-5.3v5.3h-4.4V88.2h4.4v5.4l2.9-5.4H138.2z M102,92.3v-4.2h11.2v4.2h-3.3v8.6h-4.5v-8.6H102z M106.4,104.1h0.5l5.8,12.7
			h-2.1l-1.4-3.3h-4.9l-1.4,3.3h-2.1L106.4,104.1z M107.2,108.9c-0.1-0.2-0.1-0.4-0.2-0.6c-0.1-0.2-0.2-0.5-0.2-0.8
			c-0.1,0.3-0.1,0.5-0.2,0.8c-0.1,0.2-0.2,0.5-0.2,0.7l-1.3,2.9h3.5L107.2,108.9z M101.1,96.2c-0.1,0.5-0.3,1-0.6,1.5v0
			c-0.6,1.1-1.4,1.9-2.4,2.4c-1,0.5-2.1,0.8-3.3,0.8h-0.3c-0.6,0-1.3-0.2-1.9-0.4c-0.6-0.2-1.2-0.5-1.7-0.9
			c-0.8-0.6-1.4-1.4-1.9-2.3c-0.4-0.9-0.6-1.9-0.6-2.9c0-0.7,0.1-1.4,0.3-2c0.2-0.7,0.5-1.3,0.9-1.8c0.6-0.8,1.4-1.5,2.3-1.9
			c0.9-0.4,1.9-0.6,2.9-0.6H95c0.8,0,1.6,0.2,2.4,0.5c0.8,0.3,1.4,0.8,2,1.3c0.6,0.6,1.1,1.3,1.4,2.1c0.3,0.8,0.5,1.6,0.5,2.5
			C101.3,95.1,101.2,95.7,101.1,96.2z M96.9,94.6v-0.2c0-0.3-0.1-0.5-0.2-0.8c-0.1-0.3-0.2-0.5-0.4-0.7c-0.2-0.2-0.4-0.4-0.7-0.5
			c-0.3-0.1-0.5-0.2-0.8-0.2c-0.3,0-0.7,0.1-1,0.2c-0.3,0.2-0.6,0.4-0.7,0.7c-0.1,0.2-0.2,0.4-0.3,0.6c-0.1,0.2-0.1,0.5-0.1,0.7
			c0,0.4,0.1,0.7,0.2,1c0.1,0.3,0.3,0.6,0.6,0.8c0.2,0.2,0.4,0.3,0.6,0.4c0.2,0.1,0.4,0.1,0.7,0.1c0.4,0,0.7-0.1,1.1-0.3
			c0.3-0.2,0.6-0.5,0.8-0.9v0c0.1-0.1,0.1-0.3,0.2-0.5C96.9,94.9,96.9,94.7,96.9,94.6z M115.3,100.9V88.2h8.5v3.5h-4v1.2h3.6v3.3
			h-3.6v1.3h4v3.5H115.3z M144.4,88.2h5l4.4,12.7H149l-0.4-1.6h-3.4l-0.4,1.6H140L144.4,88.2z M146,96.3h1.9
			c-0.1-0.2-0.1-0.4-0.2-0.6c-0.1-0.2-0.1-0.4-0.2-0.6c-0.1-0.5-0.2-1-0.3-1.5c-0.1-0.5-0.2-1-0.2-1.5l-0.1,0c0,0.5-0.1,1.1-0.2,1.6
			c-0.1,0.5-0.2,1-0.3,1.5c-0.1,0.2-0.1,0.4-0.2,0.6C146.1,95.9,146,96.1,146,96.3z M86.2,112.9v-8.8h1.9v12.7h-0.5l-7.6-7.4
			c-0.2-0.2-0.4-0.4-0.6-0.7c-0.2-0.2-0.4-0.5-0.6-0.7v8.8H77v-12.7h0.5l7.4,7.3c0.2,0.2,0.4,0.5,0.7,0.7
			C85.8,112.3,86,112.6,86.2,112.9z M176.1,92.5v-4.3h4.4v12.7H176l-3.9-6.6c0,0.2,0,0.3,0.1,0.5c0,0.2,0,0.3,0,0.5
			c0,0.2,0,0.3,0,0.5c0,0.2,0,0.3,0,0.5v4.6h-4.4V88.2h4.4l3.9,6.7c0-0.1,0-0.2,0-0.4c0-0.1,0-0.3,0-0.4c0-0.3,0-0.5,0-0.8
			C176.1,93,176.1,92.7,176.1,92.5z M81.2,97.2v3.7h-4.5V88.2h5.4c1.7,0,3,0.3,4,1c1,0.7,1.5,1.9,1.5,3.6V93c0,0.1,0,0.2,0,0.3
			c0,1-0.3,1.8-0.9,2.5c-0.5,0.7-1.3,1.1-2.3,1.3c-0.3,0.1-0.6,0.1-0.9,0.1c-0.3,0-0.6,0-1,0h-0.3c-0.1,0-0.2,0-0.3,0H81.2z
			 M81.2,91.7v2.1c0,0,0,0,0.1,0h0.3c0.1,0,0.2,0,0.3,0c0.3,0,0.6-0.1,0.9-0.2c0.3-0.1,0.4-0.4,0.4-0.8c0-0.4-0.2-0.7-0.4-0.8
			c-0.3-0.1-0.6-0.2-0.9-0.2c-0.1,0-0.2,0-0.3,0H81.2z M99.1,104.1l-4.9,5.7l5.5,7.1h-2.6l-4.9-6.5v6.5h-2v-12.7h2v5.3l4.5-5.3H99.1
			z M165.2,94.6c-0.4,0.6-1,1-1.8,1.1l3.4,5.2h-5.1l-2.2-4.2v4.2h-4.4V88.2h5.7c0.7,0,1.3,0.1,1.9,0.2c0.6,0.1,1.2,0.4,1.7,0.8
			c0.5,0.4,0.8,0.9,1.1,1.4c0.2,0.6,0.4,1.2,0.4,1.8v0.1C165.8,93.3,165.6,94,165.2,94.6z M161,93.8c0.4-0.1,0.5-0.5,0.5-1
			c0-0.6-0.2-0.9-0.5-1.1c-0.4-0.1-0.8-0.2-1.2-0.2h-0.4v2.5c0,0,0,0,0,0h0.3C160.3,94,160.7,93.9,161,93.8z M31.5,85
			c9.7,0,17.5,7.8,17.5,17.5c0,9.7-7.8,17.5-17.5,17.5c-9.7,0-17.5-7.8-17.5-17.5C14,92.8,21.8,85,31.5,85z M32.4,113.2v-9.6h-9.6
			v9.6H32.4z M32.4,101.3v-9.6h-9.6v9.6H32.4z M34.8,113.2c4.8,0,7.2-2.1,7.2-4.8c0-2.6-2.4-4.8-7.2-4.8V113.2z M34.8,101.3
			c4.8,0,7.2-2.1,7.2-4.8c0-2.6-2.4-4.8-7.2-4.8V101.3z"/>
	</g>
</g>
</svg>
