<?xml version="1.0" encoding="utf-8"?>
<!-- Generator: Adobe Illustrator 24.1.2, SVG Export Plug-In . SVG Version: 6.00 Build 0)  -->
<svg version="1.1" id="Layer_1" xmlns="http://www.w3.org/2000/svg" xmlns:xlink="http://www.w3.org/1999/xlink" x="0px" y="0px"
	 viewBox="0 0 50 51" style="enable-background:new 0 0 50 51;" xml:space="preserve">
<style type="text/css">
	.st0{fill-rule:evenodd;clip-rule:evenodd;fill:#FCF5A3;}
</style>
<desc>Created with Sketch.</desc>
<g id="Page-1">
	<g id="instagram">
		<g id="Group">
			<path id="Shape" class="st0" d="M25.2,12.7c-7,0-12.8,5.7-12.8,12.8s5.7,12.8,12.8,12.8S38,32.5,38,25.5S32.2,12.7,25.2,12.7
				L25.2,12.7z M25.2,33.7c-4.5,0-8.2-3.7-8.2-8.2s3.7-8.2,8.2-8.2s8.2,3.7,8.2,8.2S29.7,33.7,25.2,33.7L25.2,33.7z"/>
			<circle id="Oval" class="st0" cx="38.5" cy="12.4" r="2.9"/>
			<path id="Shape_1_" class="st0" d="M46,4.9c-2.6-2.7-6.3-4.1-10.5-4.1H14.9C6.2,0.8,0.4,6.6,0.4,15.3v20.5c0,4.3,1.4,8,4.2,10.7
				c2.7,2.6,6.3,3.9,10.4,3.9h20.4c4.3,0,7.9-1.4,10.5-3.9c2.7-2.6,4.1-6.3,4.1-10.6V15.3C50,11.1,48.6,7.5,46,4.9L46,4.9z
				 M45.4,35.9c0,3.1-0.9,5.6-2.7,7.3s-4.3,2.6-7.3,2.6H15c-3,0-5.5-0.9-7.3-2.6C5.9,41.4,5,38.9,5,35.8V15.3c0-3,0.9-5.5,2.7-7.3
				C9.4,6.3,12,5.4,15,5.4h20.6c3,0,5.5,0.9,7.3,2.7c1.7,1.8,2.7,4.3,2.7,7.2v20.6H45.4z"/>
		</g>
	</g>
</g>
</svg>
