<?xml version="1.0" encoding="utf-8"?>
<!-- Generator: Adobe Illustrator 24.1.2, SVG Export Plug-In . SVG Version: 6.00 Build 0)  -->
<svg version="1.1" id="Layer_1" xmlns="http://www.w3.org/2000/svg" xmlns:xlink="http://www.w3.org/1999/xlink" x="0px" y="0px"
	 viewBox="0 0 50 51" style="enable-background:new 0 0 50 51;" xml:space="preserve">
<style type="text/css">
	.st0{fill-rule:evenodd;clip-rule:evenodd;fill:#FCF5A3;}
</style>
<desc>Created with Sketch.</desc>
<g id="Page-1">
	<g id="linkedin">
		<g id="Group">
			<path id="Shape" class="st0" d="M27.1,23.1L27.1,23.1C27.1,23,27,23.1,27.1,23.1L27.1,23.1L27.1,23.1z"/>
			<path id="Shape_1_" class="st0" d="M46.3,0.7H4.1c-2,0-3.7,1.6-3.7,3.6v42.6c0,2,1.6,3.6,3.7,3.6h42.1c2,0,3.7-1.6,3.7-3.6V4.2
				C49.9,2.3,48.3,0.7,46.3,0.7L46.3,0.7z M15.5,42.3H8V19.8h7.5V42.3L15.5,42.3z M11.7,16.8L11.7,16.8c-2.6,0-4.2-1.7-4.2-3.9
				c0-2.2,1.7-3.9,4.2-3.9c2.6,0,4.1,1.7,4.2,3.9C16,15.1,14.3,16.8,11.7,16.8L11.7,16.8z M42.4,42.3h-7.5v-12c0-3-1.1-5.1-3.8-5.1
				c-2.1,0-3.3,1.4-3.8,2.7c-0.2,0.5-0.2,1.1-0.2,1.8v12.5h-7.5c0,0,0.1-20.4,0-22.5h7.5V23c1-1.5,2.8-3.7,6.7-3.7
				c4.9,0,8.6,3.2,8.6,10.1L42.4,42.3L42.4,42.3z"/>
		</g>
	</g>
</g>
</svg>
