<?xml version="1.0" encoding="utf-8"?>
<!-- Generator: Adobe Illustrator 24.1.2, SVG Export Plug-In . SVG Version: 6.00 Build 0)  -->
<svg version="1.1" id="Layer_1" xmlns="http://www.w3.org/2000/svg" xmlns:xlink="http://www.w3.org/1999/xlink" x="0px" y="0px"
	 viewBox="0 0 81.6 55.5" style="enable-background:new 0 0 81.6 55.5;" xml:space="preserve">
<style type="text/css">
	.st0{fill-rule:evenodd;clip-rule:evenodd;fill:#FCF5A3;}
	.st1{fill-rule:evenodd;clip-rule:evenodd;fill:#E2DB96;}
	.st2{fill-rule:evenodd;clip-rule:evenodd;fill:#FCF6BE;}
</style>
<path class="st0" d="M2.8,55.4H4V41.6H2.8V55.4z M12.8,41.6c1.1,0,2.1,0.2,3.1,0.5c0.9,0.3,1.7,0.8,2.3,1.4c0.6,0.6,1.2,1.3,1.5,2.2
	c0.7,1.8,0.7,3.9,0,5.7c-0.3,0.8-0.8,1.6-1.5,2.2c-0.7,0.6-1.5,1.1-2.3,1.4c-1,0.3-2,0.5-3.1,0.5h-5V41.6H12.8z M8.9,42.8v11.5h3.8
	c0.9,0,1.8-0.1,2.6-0.4c0.7-0.2,1.4-0.6,1.9-1.2c0.5-0.5,0.9-1.1,1.2-1.8c0.3-0.8,0.4-1.6,0.4-2.4c0-0.8-0.1-1.6-0.4-2.4
	c-0.3-0.7-0.7-1.3-1.2-1.8c-0.6-0.5-1.2-0.9-1.9-1.2c-0.9-0.3-1.7-0.4-2.6-0.4H8.9z M34.1,41.5c0.6,0,1.1,0.1,1.7,0.2
	c0.5,0.1,1.1,0.3,1.5,0.6c0.5,0.2,0.9,0.5,1.3,0.9c0.4,0.3,0.7,0.7,1,1.2l-1,0.7c-0.2-0.4-0.5-0.7-0.8-1c-0.3-0.3-0.7-0.5-1-0.7
	c-0.4-0.2-0.8-0.4-1.3-0.5c-0.5-0.1-0.9-0.2-1.4-0.2c-0.8,0-1.6,0.2-2.3,0.5c-1.4,0.6-2.5,1.7-3,3c-0.6,1.5-0.6,3.2,0,4.8
	c0.6,1.4,1.7,2.5,3.1,3c0.7,0.3,1.5,0.4,2.3,0.4c0.5,0,0.9-0.1,1.4-0.2c0.4-0.1,0.9-0.2,1.3-0.4c0.4-0.2,0.7-0.5,1-0.7
	c0.3-0.3,0.6-0.6,0.8-1l1,0.7c-0.3,0.4-0.6,0.8-1,1.2c-0.4,0.3-0.8,0.6-1.3,0.9c-0.5,0.2-1,0.4-1.5,0.6c-0.6,0.1-1.1,0.2-1.7,0.2
	c-1,0-1.9-0.2-2.8-0.5c-1.7-0.7-3-2-3.7-3.7c-0.7-1.8-0.7-3.8,0-5.7c0.7-1.7,2-3,3.7-3.7C32.2,41.6,33.2,41.5,34.1,41.5L34.1,41.5z
	 M43.3,47.8c0.2-0.3,0.4-0.6,0.7-0.8c0.2-0.2,0.5-0.4,0.8-0.5c0.3-0.1,0.6-0.2,0.9-0.3c0.3-0.1,0.6-0.1,0.9-0.1
	c0.5,0,1.1,0.1,1.6,0.3c0.5,0.2,0.9,0.4,1.2,0.7c0.3,0.3,0.6,0.7,0.8,1.2c0.2,0.5,0.3,1,0.3,1.6v5.7h-1.1v-5.4
	c0-0.4-0.1-0.8-0.2-1.3c-0.1-0.4-0.3-0.7-0.6-1c-0.3-0.3-0.6-0.5-0.9-0.6c-0.4-0.1-0.8-0.2-1.3-0.2c-0.4,0-0.8,0.1-1.2,0.2
	c-0.4,0.1-0.7,0.4-1,0.6c-0.3,0.3-0.5,0.6-0.7,1c-0.2,0.4-0.2,0.8-0.2,1.2v5.3h-1.1V41.2h1.1V47.8z M57.2,46c0.6,0,1.2,0.1,1.7,0.3
	c0.5,0.2,1,0.6,1.4,1c0.4,0.4,0.7,0.9,0.9,1.4c0.2,0.6,0.3,1.3,0.3,1.9v0.2c0,0.1,0,0.2,0,0.2h-7.8c0,0.5,0.2,1,0.4,1.4
	c0.2,0.4,0.5,0.8,0.8,1.1c0.3,0.3,0.7,0.5,1.1,0.7c0.4,0.2,0.9,0.2,1.3,0.2c0.6,0,1.2-0.1,1.7-0.4c0.5-0.2,1-0.6,1.4-1l0.6,0.8
	c-0.3,0.3-0.6,0.5-0.9,0.7c-0.3,0.2-0.6,0.4-0.9,0.5c-0.3,0.1-0.7,0.2-1,0.3c-0.3,0-0.7,0.1-1,0.1c-0.6,0-1.3-0.1-1.9-0.3
	c-1.1-0.5-2-1.3-2.4-2.5c-0.2-0.6-0.3-1.2-0.3-1.9c0-0.7,0.1-1.3,0.3-1.9c0.2-0.6,0.6-1.1,1-1.5c0.4-0.4,0.9-0.8,1.5-1
	C56,46.1,56.6,46,57.2,46L57.2,46z M57.2,47c-0.9,0-1.7,0.3-2.3,0.9c-0.3,0.3-0.5,0.6-0.7,1c-0.2,0.4-0.3,0.8-0.3,1.3h6.6
	c0-0.5-0.1-0.9-0.3-1.3c-0.2-0.4-0.4-0.7-0.7-1c-0.3-0.3-0.6-0.5-1-0.7C58,47.1,57.6,47,57.2,47L57.2,47z M67.9,46
	c0.7,0,1.3,0.1,1.9,0.4c0.6,0.2,1.1,0.6,1.5,1.1l-0.7,0.8c-0.3-0.4-0.8-0.6-1.2-0.8c-0.5-0.2-1-0.3-1.5-0.3c-0.5,0-1,0.1-1.4,0.3
	c-0.9,0.4-1.5,1.1-1.9,2c-0.4,1-0.4,2,0,3c0.3,0.9,1,1.6,1.9,1.9c0.4,0.2,0.9,0.3,1.4,0.3c0.5,0,1-0.1,1.5-0.3
	c0.5-0.2,0.9-0.5,1.2-0.8l0.7,0.8c-0.4,0.5-1,0.8-1.6,1c-0.6,0.3-1.2,0.4-1.9,0.4c-0.7,0-1.3-0.1-1.9-0.4c-0.6-0.2-1.1-0.6-1.5-1
	c-0.4-0.4-0.8-0.9-1-1.5c-0.5-1.2-0.5-2.6,0-3.8c0.2-0.6,0.6-1.1,1-1.5c0.4-0.4,0.9-0.8,1.5-1C66.6,46.1,67.2,46,67.9,46L67.9,46z
	 M74.7,50h1.5l3.9-3.9h1.4l-4.4,4.4l4.5,4.9h-1.4l-4-4.3h-1.5v4.3h-1.1V41.2h1.1L74.7,50z"/>
<polygon class="st1" points="13.6,20.6 23.7,20.6 23.7,2.5 13.6,2.5 "/>
<path class="st0" d="M14.2,11.5c0-3.5,1.6-6.9,4.4-9.1c-5-3.9-12.2-3.1-16.2,1.9s-3.1,12.2,1.9,16.2c4.2,3.3,10.1,3.3,14.2,0
	C15.9,18.4,14.2,15.1,14.2,11.5"/>
<path class="st2" d="M37.3,11.5c0,6.4-5.2,11.5-11.5,11.5c-2.6,0-5.1-0.9-7.1-2.5c5-3.9,5.9-11.2,1.9-16.2C20,3.7,19.4,3,18.6,2.5
	c5-3.9,12.2-3.1,16.2,2C36.4,6.4,37.3,8.9,37.3,11.5"/>
</svg>
