<?xml version="1.0" encoding="utf-8"?>
<!-- Generator: Adobe Illustrator 24.1.2, SVG Export Plug-In . SVG Version: 6.00 Build 0)  -->
<svg version="1.1" id="Layer_1" xmlns="http://www.w3.org/2000/svg" xmlns:xlink="http://www.w3.org/1999/xlink" x="0px" y="0px"
	 viewBox="0 0 80 80" style="enable-background:new 0 0 80 80;" xml:space="preserve">
<style type="text/css">
	.st0{fill:none;}
	.st1{fill-rule:evenodd;clip-rule:evenodd;fill:#FCF5A3;}
	.st2{fill-rule:evenodd;clip-rule:evenodd;fill:#FFFFFF;}
</style>
<g>
	<polygon class="st0" points="0,80 80,80 80,0 0,0 	"/>
	<polygon class="st1" points="0,80 80,80 80,40 0,40 	"/>
	<path class="st2" d="M41.8,55v5.3c0,1.8,0.7,2.6,1.9,2.6c1.2,0,1.9-0.8,1.9-2.6V55h1.7v5.2c0,2.8-1.4,4-3.6,4c-2.1,0-3.5-1.2-3.5-4
		V55H41.8z M21.7,54.9c1,0,1.7,0.2,2.2,0.4l-0.4,1.3c-0.3-0.2-1-0.4-1.8-0.4c-1.1,0-1.5,0.6-1.5,1.1c0,0.7,0.5,1,1.7,1.5
		c1.6,0.6,2.3,1.4,2.3,2.7c0,1.5-1.1,2.7-3.4,2.7c-1,0-2-0.3-2.5-0.6l0.4-1.4c0.5,0.3,1.3,0.6,2.2,0.6c1.1,0,1.6-0.5,1.6-1.2
		c0-0.7-0.5-1.1-1.6-1.5c-1.5-0.5-2.5-1.3-2.5-2.6C18.5,56,19.7,54.9,21.7,54.9z M36.8,54.9c1.1,0,1.9,0.2,2.2,0.4l-0.4,1.3
		c-0.4-0.2-1-0.4-1.8-0.4c-1.8,0-3.2,1.2-3.2,3.3c0,2,1.2,3.3,3.2,3.3c0.7,0,1.4-0.1,1.8-0.3l0.3,1.3c-0.4,0.2-1.3,0.4-2.4,0.4
		c-2.9,0-4.6-1.8-4.6-4.6C31.9,56.7,34,54.9,36.8,54.9z M30.9,55v1.4h-3.6v2.3h3.4v1.3h-3.4v2.7h3.8v1.4h-5.5V55H30.9z M51.5,54.9
		c1.3,0,2.2,0.2,2.8,0.7c0.5,0.4,0.8,1.1,0.8,1.8c0,1.2-0.8,2-1.7,2.3v0c0.7,0.2,1.1,0.9,1.3,1.8c0.3,1.1,0.5,2.2,0.7,2.5h-1.7
		c-0.1-0.3-0.4-1-0.6-2.1c-0.3-1.2-0.7-1.6-1.6-1.6h-0.8v3.7H49v-9C49.7,55,50.6,54.9,51.5,54.9z M61.9,55v1.4h-3.6v2.3h3.4v1.3
		h-3.4v2.7h3.8v1.4h-5.5V55H61.9z M51.7,56.2c-0.5,0-0.9,0-1,0.1v2.9h1c1.1,0,1.8-0.6,1.8-1.5C53.5,56.7,52.8,56.2,51.7,56.2z"/>
	<path class="st1" d="M38.4,11.2l-3.9,18h-4.7l3.9-18H38.4z M58,22.8l2.5-6.8l1.4,6.8H58z M63.2,29.2h4.3l-3.8-18h-4
		c-0.9,0-1.7,0.5-2,1.3l-7,16.7h4.9l1-2.7h6L63.2,29.2z M51,23.3c0-4.8-6.6-5-6.5-7.1c0-0.6,0.6-1.3,2-1.5c0.7-0.1,2.5-0.2,4.6,0.8
		l0.8-3.8c-1.1-0.4-2.6-0.8-4.4-0.8c-4.6,0-7.8,2.4-7.9,6c0,2.6,2.3,4,4.1,4.9c1.8,0.9,2.4,1.4,2.4,2.2c0,1.2-1.4,1.7-2.8,1.8
		c-2.3,0-3.7-0.6-4.8-1.1l-0.8,3.9c1.1,0.5,3.1,0.9,5.2,1C47.8,29.5,51,27.1,51,23.3L51,23.3z M31.7,11.2l-7.5,18h-4.9l-3.7-14.4
		c-0.2-0.9-0.4-1.2-1.1-1.6c-1.1-0.6-3-1.2-4.6-1.5l0.1-0.5h7.9c1,0,1.9,0.7,2.1,1.8l2,10.4l4.8-12.3H31.7z"/>
</g>
</svg>
