<?xml version="1.0" encoding="utf-8"?>
<!-- Generator: Adobe Illustrator 24.1.2, SVG Export Plug-In . SVG Version: 6.00 Build 0)  -->
<svg version="1.1" id="Layer_1" xmlns="http://www.w3.org/2000/svg" xmlns:xlink="http://www.w3.org/1999/xlink" x="0px" y="0px"
	 viewBox="0 0 50 49" style="enable-background:new 0 0 50 49;" xml:space="preserve">
<style type="text/css">
	.st0{fill-rule:evenodd;clip-rule:evenodd;fill:#FCF5A3;}
</style>
<desc>Created with Sketch.</desc>
<g id="Page-1">
	<g id="youtube">
		<g id="Group">
			<path id="Shape" class="st0" d="M40.9,23.2H9.8c-4.9,0-9,4-9,9v7.2c0,4.9,4,9,9,9h31.1c4.9,0,9-4,9-9v-7.2
				C49.9,27.2,45.9,23.2,40.9,23.2L40.9,23.2z M16.3,28.8h-2.9v14.4h-2.8V28.8H7.7v-2.4h8.6V28.8L16.3,28.8z M24.5,43.2H22v-1.4
				c-0.5,0.5-0.9,0.9-1.4,1.1c-0.5,0.3-1,0.4-1.4,0.4c-0.6,0-1-0.2-1.3-0.6c-0.3-0.4-0.4-0.9-0.4-1.7V30.8h2.5v9.5
				c0,0.3,0.1,0.5,0.2,0.6c0.1,0.1,0.3,0.2,0.5,0.2c0.2,0,0.4-0.1,0.7-0.3c0.3-0.2,0.5-0.4,0.8-0.7v-9.4h2.5V43.2L24.5,43.2z
				 M33.5,40.6c0,0.9-0.2,1.6-0.6,2c-0.4,0.5-1,0.7-1.7,0.7c-0.5,0-0.9-0.1-1.3-0.3c-0.4-0.2-0.7-0.5-1.1-0.8v1h-2.5V26.4h2.5v5.4
				c0.3-0.4,0.7-0.7,1.1-0.9c0.4-0.2,0.8-0.3,1.1-0.3c0.8,0,1.4,0.3,1.8,0.8c0.4,0.5,0.6,1.3,0.6,2.3L33.5,40.6L33.5,40.6z
				 M42.1,37.3h-4.7v2.3c0,0.7,0.1,1.1,0.2,1.4c0.2,0.3,0.4,0.4,0.8,0.4c0.4,0,0.7-0.1,0.9-0.3c0.2-0.2,0.2-0.7,0.2-1.4v-0.6h2.6
				v0.6c0,1.3-0.3,2.2-0.9,2.9c-0.6,0.6-1.5,1-2.8,1c-1.1,0-2-0.3-2.6-1c-0.6-0.7-1-1.6-1-2.8v-5.6c0-1.1,0.4-2,1.1-2.6
				c0.7-0.7,1.6-1,2.7-1c1.1,0,2,0.3,2.6,0.9c0.6,0.6,0.9,1.5,0.9,2.7V37.3L42.1,37.3z"/>
			<path id="Shape_1_" class="st0" d="M38.5,32.6c-0.4,0-0.7,0.1-0.8,0.3c-0.2,0.2-0.3,0.6-0.3,1.1v1.3h2.2v-1.3
				c0-0.5-0.1-0.9-0.3-1.1C39.1,32.8,38.8,32.6,38.5,32.6L38.5,32.6z"/>
			<path id="Shape_2_" class="st0" d="M29.9,32.6c-0.2,0-0.4,0-0.5,0.1c-0.2,0.1-0.3,0.2-0.5,0.4v7.7c0.2,0.2,0.4,0.4,0.6,0.4
				c0.2,0.1,0.4,0.1,0.6,0.1c0.3,0,0.5-0.1,0.7-0.3c0.1-0.2,0.2-0.5,0.2-0.9v-6.4c0-0.4-0.1-0.7-0.3-1
				C30.5,32.7,30.2,32.6,29.9,32.6L29.9,32.6z"/>
			<polygon id="Shape_3_" class="st0" points="13.9,18.9 17,18.9 17,11.2 20.7,0.4 17.5,0.4 15.5,7.8 15.3,7.8 13.3,0.4 10.1,0.4 
				13.9,11.6 			"/>
			<path id="Shape_4_" class="st0" d="M24.9,19.2c1.3,0,2.3-0.3,3-1c0.7-0.7,1.1-1.6,1.1-2.8V8.4c0-1-0.4-1.9-1.1-2.6
				c-0.7-0.7-1.7-1-2.8-1c-1.3,0-2.3,0.3-3,0.9c-0.8,0.6-1.1,1.5-1.1,2.5v7.1c0,1.2,0.4,2.1,1.1,2.8C22.7,18.9,23.7,19.2,24.9,19.2
				L24.9,19.2z M23.8,8.2c0-0.3,0.1-0.5,0.3-0.7c0.2-0.2,0.5-0.3,0.8-0.3c0.4,0,0.7,0.1,0.9,0.3c0.2,0.2,0.3,0.4,0.3,0.7v7.5
				c0,0.4-0.1,0.7-0.3,0.9c-0.2,0.2-0.5,0.3-0.9,0.3c-0.4,0-0.7-0.1-0.9-0.3c-0.2-0.2-0.3-0.5-0.3-0.9L23.8,8.2L23.8,8.2z"/>
			<path id="Shape_5_" class="st0" d="M33.2,19.1c0.5,0,1.1-0.1,1.6-0.4c0.6-0.3,1.1-0.7,1.6-1.3v1.5h2.8V5.2h-2.8v10.4
				c-0.3,0.3-0.5,0.5-0.9,0.7c-0.3,0.2-0.6,0.3-0.8,0.3c-0.3,0-0.5-0.1-0.6-0.2c-0.1-0.1-0.2-0.4-0.2-0.7V5.2h-2.8v11.4
				c0,0.8,0.2,1.4,0.5,1.8C32.1,18.9,32.6,19.1,33.2,19.1L33.2,19.1z"/>
		</g>
	</g>
</g>
</svg>
